Simulation
nRows=28
nColumns=15
endheader
time  TH_x TH_y TH_z SC_y  SC_z  SC_x  AC_y  AC_z  AC_x  GH_y  GH_z  GH_yy  EL_x  PS_y
2.8725  0.000000  0.000000  0.000000  -33.10527929098219  -3.1262029722203812  0.7783223969312391  48.39355979245111  -9.787760744358783  0.9747684601211957  -8.496856317861317  23.75447219233952  9.064079875258447  14.00375810027216  120.000000
2.92995  0.000000  0.000000  0.000000  -33.7432665861758  -1.6849628986750118  -0.11146149695613583  46.93527806074805  -6.7797220473035456  0.22084663893153542  -0.5686653537369294  18.37830862782919  6.056039360784006  14.363239006563237  120.000000
2.9874  0.000000  0.000000  0.000000  -34.68998580963644  -0.4710829291623173  -1.1802181642253724  45.6415957331967  -3.882424624653532  -0.08435355231821731  10.278019165926004  14.039410434823123  -0.2627762896539956  14.801746064781904  120.000000
3.0448500000000003  0.000000  0.000000  0.000000  -35.878066671719594  0.4673499631057428  -2.129250467649009  44.55974044631826  -1.3302431402007646  -0.16494878052219977  24.84190303955506  10.943369335258696  -10.835956133184792  15.273851264142401  120.000000
3.1023  0.000000  0.000000  0.000000  -37.20355934201799  1.1575802323272255  -2.8535951109925652  43.70637627794754  0.8191955296450945  -0.14091347532682347  42.51011706203551  9.131789981099292  -25.09777617562917  15.742816648634074  120.000000
3.15975  0.000000  0.000000  0.000000  -38.57533305179826  1.6771241038253242  -3.3583369497685975  43.06847840431687  2.584228660659448  -0.0625938291980639  60.382604396260795  8.418016485208394  -40.13720607214555  16.186339071858068  120.000000
3.2172  0.000000  0.000000  0.000000  -39.917463796881734  2.081434299246415  -3.683330206589105  42.61347613035873  4.0144142584236775  0.02965761069034879  75.22682940551503  8.416591843234118  -52.67931633392866  16.591229718604417  120.000000
3.2746500000000003  0.000000  0.000000  0.000000  -41.16014166969746  2.3999200145556916  -3.873062359202055  42.28695848142269  5.165182254747588  0.11609496133661755  85.98933529337273  8.727877283681654  -61.59692378927607  16.959963778243612  120.000000
3.3321  0.000000  0.000000  0.000000  -42.23457520237729  2.6497361145709433  -3.96139644329539  42.04145288583669  6.080648284693062  0.1767604827658722  93.29720182004526  9.092907327828822  -67.43424021609158  17.305866438068502  120.000000
3.38955  0.000000  0.000000  0.000000  -43.07708761459068  2.842650624819289  -3.9778850588785066  41.85488137928139  6.790076141440786  0.1889590984081303  98.07661263556801  9.39702161819222  -71.05272807685728  17.642706956002026  120.000000
3.447  0.000000  0.000000  0.000000  -43.648158865533674  2.9844938305191793  -3.944226149836285  41.71673929627412  7.297180939358903  0.15217040491017472  101.01885714672335  9.608402170512242  -73.11002366108077  17.98158353978531  120.000000
3.5044500000000003  0.000000  0.000000  0.000000  -43.93403428749273  3.0766721562365764  -3.880096230076917  41.633200201808144  7.589250079954667  0.09110184635441168  102.52541972651396  9.727266594736214  -74.00176546966853  18.32940868863792  120.000000
3.5619  0.000000  0.000000  0.000000  -43.939110742746436  3.118062377959719  -3.805415718910215  41.62215314149786  7.655236256711008  0.04474222472321598  102.7967454932303  9.751803369271528  -73.94015626928476  18.689859683410365  120.000000
3.61935  0.000000  0.000000  0.000000  -43.682516224841734  3.1072287198591306  -3.7369473222654155  41.70584162102965  7.494960202319945  0.05663763917235966  101.89183871083354  9.66857732378223  -73.00745191152136  19.06058588817274  120.000000
3.6768  0.000000  0.000000  0.000000  -43.19126529454437  3.045905909205662  -3.689185790528663  41.91751538739309  7.123505898852102  0.15937357182969147  99.72216126824854  9.463968694305015  -71.13720060815967  19.43681990667366  120.000000
3.7342500000000003  0.000000  0.000000  0.000000  -42.489768684440655  2.940783749178631  -3.6737890663691033  42.29148106303427  6.5645188827128385  0.37597683503325635  96.073830607825  9.134641857922222  -68.120095632791  19.816599530279177  120.000000
3.7917  0.000000  0.000000  0.000000  -41.60823330849798  2.7946555193039755  -3.697209321173827  42.84679615656079  5.841061109211918  0.7312170556946194  90.58223573788689  8.702676124299595  -63.574202006674255  20.202160312772733  120.000000
3.84915  0.000000  0.000000  0.000000  -40.5976138738241  2.5992916920042317  -3.760481689510721  43.58309355205038  4.974885377934428  1.250563339495773  82.65529899278715  8.23477800552302  -56.87047850065764  20.593886064185412  120.000000
3.9066  0.000000  0.000000  0.000000  -39.51667854180357  2.346757480383554  -3.8684795115338333  44.501944523997594  3.99017273045434  1.9462095641131576  71.51261849965769  7.8657013210499995  -47.16072491619596  20.99240322896302  120.000000
3.9640500000000003  0.000000  0.000000  0.000000  -38.42764005798354  2.01621784847523  -4.029241223022593  45.60121519971558  2.905212963890066  2.8203488993018073  56.71442515655771  7.829238076646643  -33.91545067928404  21.39485994792776  120.000000
4.0215  0.000000  0.000000  0.000000  -37.397041866644535  1.5763054708553759  -4.254414096986275  46.8648061515498  1.7154040454998885  3.8894795211506827  39.42407660966004  8.457695879376724  -18.20253431260533  21.796719093918213  120.000000
4.07895  0.000000  0.000000  0.000000  -36.47828812198871  0.9886363592503491  -4.566163088988504  48.285311726361726  0.3991440126496547  5.169195844502778  22.709052649170424  10.065147102308876  -3.0087526317329365  22.185441345706312  120.000000
4.1364  0.000000  0.000000  0.000000  -35.69329759542432  0.20534682345614258  -5.005665600202341  49.85431583636933  -1.0508663709735562  6.675322694173614  9.137792797670116  12.774093200663529  9.161441677185714  22.5400534114715  120.000000
4.19385  0.000000  0.000000  0.000000  -35.03444374659149  -0.7817338455203351  -5.601928887063866  51.54957398218849  -2.647834146061607  8.429755448919327  -0.8271278687784973  16.50141849329202  17.884833302241574  22.840890898488514  120.000000
4.2513000000000005  0.000000  0.000000  0.000000  -34.53298412276413  -1.9510540748180243  -6.348537027046186  53.33097896514332  -4.391732439865702  10.436842275422803  -7.850988214232414  21.041846176685144  23.82540844318884  23.064032360128778  120.000000
4.30875  0.000000  0.000000  0.000000  -34.242265517616644  -3.250516070855454  -7.250012656034317  55.13964079155655  -6.17893990212749  12.697490906758384  -12.661881390083433  26.081316221571782  27.69970956167082  23.196916249480672  120.000000
4.3662  0.000000  0.000000  0.000000  -34.16419497379143  -4.562703332625417  -8.280222431712787  56.919555519822154  -7.812627971431289  15.163762610410004  -15.803635322886205  31.2117746301636  30.02640155807393  23.250458401006462  120.000000
4.42365  0.000000  0.000000  0.000000  -34.24752946267603  -5.725455590840731  -9.327336757113523  58.62953606704142  -9.066096442025236  17.682157068759544  -17.68311193144631  36.030866129249006  31.157707360491642  23.26194884751071  120.000000
